<?xml version="1.0" standalone="no"?>
<!DOCTYPE svg PUBLIC "-//W3C//DTD SVG 20010904//EN"
 "http://www.w3.org/TR/2001/REC-SVG-20010904/DTD/svg10.dtd">
<svg version="1.0" xmlns="http://www.w3.org/2000/svg"
 width="1920.000000pt" height="1920.000000pt" viewBox="0 0 1920.000000 1920.000000"
 preserveAspectRatio="xMidYMid meet">
<metadata>
Created by potrace 1.11, written by Peter Selinger 2001-2013
</metadata>
<g transform="translate(0.000000,1920.000000) scale(0.100000,-0.100000)"
fill="#000000" stroke="none">
<path d="M2060 9527 l0 -4884 38 -2 c45 -3 35 -3 152 -2 52 0 106 1 120 1 14
1 30 2 35 1 9 0 156 0 330 -1 28 0 70 0 95 1 25 0 52 0 60 0 8 0 76 0 150 0
74 0 141 0 148 0 11 0 78 -1 190 -1 26 0 67 0 92 1 25 0 52 0 60 0 15 0 244 0
325 0 73 0 140 0 165 -2 14 0 30 -1 35 -1 106 0 215 1 235 2 14 1 30 2 35 1
47 -1 262 -1 270 0 6 1 14 1 18 0 5 -1 77 -1 160 -1 84 0 175 0 202 0 28 0 70
0 95 1 25 0 50 0 55 0 6 0 71 0 145 0 248 -1 263 -2 271 -7 4 -2 10 0 14 6 4
6 10 8 15 5 5 -3 57 -5 115 -5 150 2 212 2 255 -1 14 0 30 -1 35 -1 106 0 215
1 235 2 14 1 30 2 35 1 9 0 156 0 330 -1 28 0 70 0 95 1 25 0 52 0 60 0 8 0
76 0 150 0 74 0 141 0 148 0 11 0 78 -1 190 -1 26 0 67 0 92 1 25 0 52 0 60 0
15 0 244 0 325 0 73 0 140 0 165 -2 14 0 30 -1 35 -1 106 0 215 1 235 2 14 1
30 2 35 1 47 -1 262 -1 270 0 6 1 14 1 18 0 5 -1 77 -1 160 -1 84 0 175 0 202
0 28 0 70 0 95 1 25 0 50 0 55 0 6 0 71 0 145 0 248 -1 263 -2 271 -7 4 -2 10
0 14 6 4 6 10 8 15 5 5 -3 57 -5 115 -5 150 2 212 2 255 -1 14 0 30 -1 35 -1
6 0 53 0 105 1 151 1 195 1 213 0 6 -1 55 -1 107 0 151 1 195 1 213 0 24 -1
212 0 237 1 14 1 30 2 35 1 47 -1 262 -1 270 0 6 1 14 1 18 0 5 -1 77 -1 160
-1 84 0 175 0 202 0 28 0 70 0 95 1 25 0 50 0 55 0 6 0 71 0 145 0 248 -1 263
-2 271 -7 4 -2 10 0 14 6 4 6 10 8 15 5 5 -3 57 -5 115 -5 150 2 212 2 255 -1
14 0 30 -1 35 -1 106 0 215 1 235 2 14 1 30 2 35 1 9 0 156 0 330 -1 28 0 70
0 95 1 25 0 52 0 60 0 8 0 76 0 150 0 74 0 141 0 148 0 11 0 78 -1 190 -1 26
0 67 0 92 1 25 0 52 0 60 0 15 0 244 0 325 0 22 0 60 0 85 0 25 0 52 0 60 0 8
0 26 0 40 -1 27 -2 210 -2 250 0 14 1 30 2 35 1 47 -1 262 -1 270 0 6 1 14 1
18 0 5 -1 77 -1 160 -1 84 0 175 0 202 0 28 0 70 0 95 1 25 0 50 0 55 0 6 0
71 0 145 0 248 -1 263 -2 271 -7 4 -2 10 0 14 6 4 6 10 8 15 5 5 -3 57 -5 115
-5 150 2 212 2 255 -1 14 0 30 -1 35 -1 106 0 215 1 235 2 14 1 30 2 35 1 9 0
156 0 330 -1 28 0 70 0 95 1 25 0 52 0 60 0 8 0 76 0 150 0 74 0 141 0 148 0
24 -1 147 0 197 0 28 0 55 0 60 -1 6 -1 39 -2 75 -1 l65 1 0 1745 c0 960 -4
1745 -8 1745 -5 0 -5 6 0 13 11 17 12 67 1 67 -5 0 -6 6 -1 13 11 17 12 67 1
67 -5 0 -6 5 -2 12 10 16 11 3068 2 3068 -4 0 -4 10 0 23 9 27 7 160 -2 176
-4 6 -4 11 1 11 9 0 7 335 -2 350 -3 6 -3 10 2 10 9 0 8 215 -2 230 -3 5 -3
10 2 10 9 0 9 331 0 354 -3 8 -3 16 0 19 4 5 7 446 2 472 -1 6 -1 14 0 19 1 4
2 38 1 75 0 115 1 155 5 159 2 2 0 14 -5 27 -5 13 -6 26 -3 29 8 8 8 69 0 90
-4 10 -4 23 0 29 8 13 7 106 -1 114 -3 4 -1 12 5 20 9 10 8 13 0 13 -7 0 -9 5
-5 12 9 14 8 103 0 117 -4 5 -2 12 3 15 6 4 6 18 1 35 -4 16 -6 32 -2 35 3 4
5 25 4 49 -1 23 -1 156 -1 295 l0 252 -7801 0 -7800 0 0 -4883z m4270 2848 l0
-1435 -1291 0 c-710 0 -1294 -2 -1299 -5 -5 -3 -11 -1 -14 4 -3 4 -24 5 -46 1
-21 -4 -41 -5 -44 -3 -7 7 -204 5 -215 -1 -5 -4 -12 -2 -15 3 -3 4 -24 5 -46
1 -21 -4 -41 -5 -44 -3 -2 2 -150 4 -329 3 -318 0 -325 0 -330 20 -3 11 -2 20
2 20 4 0 4 25 1 56 -3 30 -3 57 2 60 4 3 3 14 -2 25 -6 10 -7 19 -2 19 4 0 5
25 2 56 -3 30 -3 57 2 60 4 3 3 14 -2 25 -6 10 -7 19 -2 19 4 0 5 25 2 56 -3
30 -3 57 2 60 4 3 3 14 -2 25 -6 10 -7 19 -3 19 4 0 6 43 3 96 -3 53 -2 98 3
101 4 2 2 13 -3 24 -6 10 -7 19 -3 19 4 0 6 34 3 76 -3 42 -2 78 2 81 5 2 3
13 -2 24 -8 14 -7 19 1 19 9 0 9 3 0 14 -8 10 -9 16 -1 21 7 4 7 12 0 26 -6
10 -7 19 -3 19 4 0 6 34 3 76 -3 42 -2 78 2 81 5 2 3 13 -2 24 -6 10 -7 19 -3
19 4 0 6 34 3 76 -3 42 -2 78 2 81 5 2 3 13 -2 24 -8 14 -7 19 1 19 9 0 9 3 0
14 -8 10 -9 16 -1 21 7 4 7 12 0 26 -6 10 -7 19 -3 19 4 0 6 34 3 76 -3 42 -2
78 2 81 5 2 3 13 -2 24 -6 10 -7 19 -3 19 4 0 6 34 3 76 -3 42 -2 78 2 81 5 2
3 13 -2 24 -8 14 -7 19 1 19 9 0 9 3 0 14 -8 10 -9 16 -1 21 7 4 7 12 0 26 -6
10 -7 19 -3 19 4 0 6 34 3 76 -3 42 -2 78 2 81 5 2 3 13 -2 24 -6 10 -7 19 -3
19 4 0 6 34 3 76 -3 42 -2 78 2 81 5 2 3 13 -2 24 -8 14 -7 19 1 19 9 0 9 3 0
14 -8 10 -9 16 -1 21 7 4 7 12 0 26 -6 10 -7 19 -3 19 4 0 6 34 3 76 -3 42 -2
78 2 81 5 2 3 13 -2 24 -6 10 -7 19 -3 19 4 0 6 34 3 76 -3 42 -2 78 2 80 4 3
5 11 1 19 -4 13 221 15 1831 15 l1836 0 0 -1435z m2511 1398 c1 -21 0 -42 -1
-48 -1 -5 -1 -45 -1 -87 1 -43 2 -86 2 -95 0 -115 0 -281 0 -290 0 -11 0 -134
0 -190 0 -115 0 -281 0 -290 0 -11 0 -134 0 -190 0 -115 0 -281 0 -290 0 -11
0 -134 0 -190 0 -115 0 -281 0 -290 0 -7 0 -49 0 -93 0 -44 0 -88 0 -97 -1
-10 -1 -47 0 -83 0 -36 0 -72 0 -80 0 -129 0 -278 0 -287 0 -11 0 -134 0 -190
0 -145 0 -281 0 -293 -2 -49 0 -145 3 -147 3 -3 184 -4 246 -2 8 0 33 0 55 0
22 -1 48 -1 58 -1 9 0 23 0 30 -1 6 0 21 1 32 2 11 1 52 1 90 0 39 0 78 -1 88
-1 9 0 23 0 30 -1 6 0 21 0 32 1 11 1 137 2 280 1 143 0 265 0 270 1 6 0 28
-1 50 -1 22 -1 48 -1 58 -1 9 0 23 0 30 -1 6 0 21 1 32 2 11 1 52 1 90 0 39 0
78 -1 88 -1 9 0 23 0 30 -1 6 0 21 0 32 1 11 1 137 2 280 1 143 0 265 0 270 1
6 0 28 -1 50 -1 22 -1 48 -1 58 -1 9 0 23 0 30 -1 6 0 21 1 32 2 11 1 52 1 90
0 39 0 78 -1 88 -1 9 0 23 0 30 -1 6 0 21 0 32 1 11 0 54 1 95 1 74 0 88 0
113 -2 6 0 21 1 32 1 11 1 54 2 95 1 105 -1 108 -1 123 -2 6 0 21 0 32 1 11 0
27 0 35 0 8 -1 24 -1 35 0 11 1 70 2 130 1 61 0 118 -1 128 -1 9 0 23 0 30 -1
6 0 21 1 32 1 11 1 54 2 95 1 105 -1 108 -1 123 -2 6 0 21 0 32 1 11 0 27 0
35 0 8 -1 24 -1 35 0 11 1 153 2 315 1 162 0 302 0 310 0 8 1 33 0 55 0 22 -1
48 -1 58 -1 9 0 23 0 30 -1 6 0 21 1 32 2 11 1 52 1 90 0 39 0 78 -1 88 -1 9
0 23 0 30 -1 6 0 21 0 32 1 11 1 209 2 440 2 231 0 425 0 430 0 6 0 28 -1 50
-1 22 -1 48 -1 58 -1 9 0 23 0 30 -1 6 0 21 1 32 2 11 1 52 1 90 0 39 0 78 -1
88 -1 9 0 23 0 30 -1 6 0 21 0 32 1 19 1 477 2 503 1 6 -1 18 -1 25 -2 6 0 21
1 32 1 11 1 54 2 95 1 105 -1 108 -1 123 -2 6 0 21 0 32 1 11 0 27 0 35 0 8
-1 24 -1 35 0 11 1 70 2 130 1 61 0 118 -1 128 -1 9 0 23 0 30 -1 6 0 21 1 32
1 11 1 54 2 95 1 105 -1 108 -1 123 -2 6 0 21 0 32 1 11 0 27 0 35 0 8 -1 24
-1 35 0 11 1 81 2 155 1 74 0 142 0 150 0 8 0 33 0 55 0 22 -1 48 -1 58 -1 9
0 25 0 35 0 9 0 44 0 77 0 32 -1 60 -2 62 -4 3 -3 6 -1950 4 -2053 l-1 -33
-4107 -2 -4108 -3 -1 -42 c-1 -22 -4 -48 -7 -57 -3 -8 -2 -18 2 -21 5 -3 6
-20 2 -38 -5 -18 -5 -41 -1 -52 4 -11 4 -30 -1 -42 -5 -12 -4 -25 0 -28 5 -3
6 -20 2 -38 -5 -18 -5 -41 -1 -52 4 -11 4 -30 -1 -42 -5 -12 -4 -25 0 -28 5
-3 6 -20 2 -38 -5 -18 -5 -41 -1 -52 4 -11 4 -30 -1 -42 -5 -12 -4 -25 0 -28
5 -3 6 -20 2 -38 -5 -18 -5 -41 -1 -52 4 -11 4 -29 1 -40 -4 -11 -6 -29 -5
-40 2 -11 3 -29 4 -40 1 -17 2 -268 1 -302 0 -11 0 -134 0 -190 0 -115 0 -281
0 -290 0 -11 0 -134 0 -190 0 -115 0 -281 0 -290 0 -11 0 -134 0 -190 0 -115
0 -281 0 -290 0 -11 0 -134 0 -190 0 -136 0 -281 0 -293 0 -8 -1 -53 -1 -100
-1 -47 -3 -80 -6 -74 -4 10 -55 11 -71 1 -5 -3 -15 -2 -23 3 -7 4 -23 5 -35 0
-12 -5 -28 -4 -35 0 -8 5 -19 5 -26 -1 -8 -7 -14 -6 -19 1 -4 6 -12 7 -24 0
-12 -6 -22 -5 -29 2 -9 9 -12 9 -12 -2 0 -11 -3 -11 -12 -2 -7 7 -17 8 -29 2
-11 -6 -20 -6 -24 -1 -3 6 -17 6 -33 1 -16 -4 -36 -4 -45 2 -11 5 -24 5 -37
-2 -11 -6 -26 -7 -33 -3 -16 10 -38 10 -58 1 -8 -3 -21 -3 -28 2 -8 4 -26 4
-41 0 -15 -4 -34 -3 -43 2 -12 6 -17 5 -17 -3 0 -8 -4 -8 -13 -1 -8 7 -18 7
-27 2 -9 -5 -19 -5 -27 2 -10 8 -13 7 -13 -3 0 -10 -3 -10 -12 -1 -7 7 -17 8
-29 2 -11 -6 -20 -6 -24 -1 -3 6 -17 6 -33 1 -16 -4 -36 -4 -45 2 -11 6 -24 5
-38 -2 -12 -7 -25 -8 -32 -3 -7 5 -23 8 -37 6 -24 -3 -36 -4 -62 -2 -7 0 -22
0 -33 -1 -11 -1 -29 1 -40 3 -11 2 -28 0 -38 -5 -12 -6 -23 -6 -30 1 -8 6 -18
6 -27 1 -9 -5 -19 -5 -27 1 -8 7 -18 7 -32 -1 -15 -7 -21 -7 -21 0 0 7 -6 7
-21 0 -14 -8 -24 -8 -32 -1 -8 6 -18 6 -27 1 -9 -5 -19 -5 -27 1 -8 7 -18 7
-32 -1 -15 -7 -21 -7 -21 0 0 7 -6 7 -21 0 -14 -8 -24 -8 -32 -1 -8 6 -18 6
-27 1 -9 -5 -19 -5 -27 1 -8 7 -18 7 -32 -1 -15 -7 -21 -7 -21 0 0 7 -6 7 -21
0 -14 -8 -24 -8 -32 -1 -8 6 -18 6 -27 1 -9 -5 -19 -5 -27 1 -8 7 -18 7 -32
-1 -15 -7 -21 -7 -21 0 0 7 -6 7 -21 0 -14 -8 -24 -8 -32 -1 -8 6 -18 6 -27 1
-9 -5 -19 -5 -27 1 -8 7 -18 7 -32 -1 -15 -7 -21 -7 -21 0 0 7 -6 7 -21 0 -13
-7 -25 -8 -32 -2 -7 5 -19 8 -27 7 -8 -2 -26 -4 -40 -6 l-25 -4 -3 1608 -2
1607 -2034 0 -2034 0 -4 81 c-2 45 0 83 5 86 4 2 2 13 -3 24 -6 10 -7 19 -3
19 4 0 6 34 3 76 -3 42 -2 78 2 81 5 2 3 13 -2 24 -8 14 -7 19 1 19 9 0 9 3 0
14 -8 10 -9 16 -1 21 7 4 7 12 0 26 -6 11 -7 19 -1 19 5 0 6 14 1 35 -4 20 -4
38 1 41 5 3 5 13 -1 25 -6 10 -7 19 -2 19 4 0 5 25 2 56 -3 30 -3 57 2 60 4 3
3 14 -2 25 -6 10 -7 19 -2 19 4 0 5 25 2 56 -3 30 -3 57 2 60 4 3 3 14 -2 25
-6 10 -7 19 -2 19 4 0 5 25 2 56 -3 30 -3 57 2 60 4 3 3 14 -2 25 -6 10 -7 19
-2 19 4 0 5 25 2 56 -3 30 -3 57 2 60 4 3 3 14 -2 25 -6 10 -7 19 -2 19 4 0 5
25 2 56 -3 30 -3 57 2 60 4 3 3 14 -2 25 -6 10 -7 19 -2 19 4 0 5 25 2 56 -3
30 -3 57 2 60 4 3 3 14 -2 25 -6 10 -7 19 -2 19 4 0 5 25 2 56 -3 30 -3 57 2
60 4 3 3 14 -2 25 -6 10 -7 19 -2 19 4 0 5 25 2 56 -3 30 -3 57 2 60 4 3 3 14
-2 25 -6 10 -7 19 -2 19 4 0 5 25 2 56 -3 30 -3 57 2 60 4 3 3 14 -2 25 -6 11
-7 19 -1 19 5 0 7 9 4 20 -5 20 -1 21 83 21 49 0 96 0 104 0 8 1 116 1 240 0
124 0 232 0 240 0 8 1 33 0 55 0 22 -1 48 -1 58 -1 9 0 23 0 30 -1 6 0 21 1
32 2 11 1 52 1 90 0 39 0 78 -1 88 -1 9 0 23 0 30 -1 6 0 21 0 32 1 11 0 54 1
95 1 74 0 88 0 113 -2 6 0 21 1 32 1 11 1 54 2 95 1 105 -1 108 -1 123 -2 6 0
21 0 32 1 11 0 27 0 35 0 8 -1 24 -1 35 0 11 1 70 2 130 1 61 0 118 -1 128 -1
9 0 23 0 30 -1 6 0 21 1 32 1 11 1 54 2 95 1 105 -1 108 -1 123 -2 6 0 21 0
32 1 11 0 27 0 35 0 8 -1 24 -1 35 0 11 1 153 2 315 1 162 0 302 0 310 0 8 1
33 0 55 0 22 -1 48 -1 58 -1 9 0 23 0 30 -1 6 0 21 1 32 2 11 1 52 1 90 0 39
0 79 -1 90 -1 19 0 49 1 70 2 6 0 15 -1 20 -2 6 -1 169 -2 363 -1 l352 1 0
1635 0 1635 1055 0 1055 0 1 -37z m8219 -1398 l0 -1436 -94 2 c-52 1 -99 -1
-104 -5 -6 -3 -13 -2 -16 3 -3 4 -24 5 -46 1 -21 -4 -41 -6 -43 -4 -6 6 -5328
5 -5337 -1 -5 -3 -11 -1 -14 4 -3 4 -24 5 -46 1 -21 -4 -41 -5 -44 -3 -7 7
-204 5 -215 -1 -5 -4 -12 -2 -15 3 -3 4 -24 5 -46 1 -22 -4 -42 -5 -44 -1 -2
3 -327 4 -721 1 -394 -3 -718 -3 -720 -2 -6 7 -215 3 -225 -3 -6 -3 -10 -2
-10 2 0 5 -18 7 -40 5 l-40 -4 1 1436 0 1436 3909 0 3910 0 0 -1435z m-10730
-5729 c0 -856 -4 -1407 -9 -1411 -5 -3 -12 -1 -16 5 -4 7 -12 7 -25 0 -11 -6
-21 -6 -25 -1 -3 6 -17 6 -33 1 -16 -4 -36 -4 -45 2 -11 5 -24 5 -37 -2 -11
-6 -26 -7 -33 -3 -16 10 -38 10 -58 1 -8 -3 -21 -3 -28 2 -8 4 -26 4 -41 0
-15 -4 -34 -3 -43 2 -12 6 -17 5 -17 -3 0 -8 -4 -8 -13 -1 -8 7 -18 7 -27 2
-9 -5 -19 -5 -27 2 -10 8 -13 7 -13 -3 0 -10 -3 -10 -12 -1 -7 7 -17 8 -29 2
-11 -6 -20 -6 -24 -1 -3 6 -17 6 -33 1 -16 -4 -36 -4 -45 2 -11 5 -24 5 -37
-2 -11 -6 -26 -7 -33 -3 -16 10 -38 10 -58 1 -8 -3 -21 -3 -29 2 -7 4 -23 5
-35 0 -12 -5 -28 -4 -35 0 -8 5 -19 5 -26 -1 -8 -7 -14 -6 -19 1 -4 6 -12 7
-24 0 -12 -6 -22 -5 -29 2 -9 9 -12 9 -12 -2 0 -11 -3 -11 -12 -2 -7 7 -17 8
-29 2 -11 -6 -20 -6 -24 -1 -3 6 -17 6 -33 1 -16 -4 -36 -4 -45 2 -11 5 -24 5
-37 -2 -11 -6 -26 -7 -33 -3 -16 10 -38 10 -58 1 -8 -3 -21 -3 -28 2 -8 4 -26
4 -41 0 -15 -4 -34 -3 -43 2 -12 6 -17 5 -17 -3 0 -8 -4 -8 -13 -1 -8 7 -18 7
-27 2 -9 -5 -19 -5 -27 2 -10 8 -13 7 -13 -3 0 -10 -3 -10 -12 -1 -7 7 -17 8
-29 2 -11 -6 -20 -6 -24 -1 -3 6 -17 6 -33 1 -16 -4 -36 -4 -45 2 -11 5 -24 5
-37 -2 -11 -6 -26 -7 -33 -3 -16 10 -38 10 -58 1 -8 -3 -21 -3 -29 2 -7 4 -23
5 -35 0 -12 -5 -28 -4 -35 0 -8 5 -19 5 -26 -1 -8 -7 -14 -6 -19 1 -4 6 -12 7
-24 0 -12 -6 -22 -5 -29 2 -9 9 -12 9 -12 -2 0 -11 -3 -11 -12 -2 -7 7 -17 8
-29 2 -11 -6 -20 -6 -24 -1 -3 6 -17 6 -33 1 -16 -4 -36 -4 -45 2 -11 5 -24 5
-37 -2 -11 -6 -26 -7 -33 -3 -16 10 -38 10 -58 1 -8 -3 -21 -3 -28 2 -8 4 -26
4 -41 0 -15 -4 -34 -3 -43 2 -12 6 -17 5 -17 -3 0 -8 -4 -8 -13 -1 -8 7 -18 7
-27 2 -9 -5 -19 -5 -27 2 -9 7 -13 7 -13 -2 0 -9 -4 -9 -13 -2 -8 7 -18 7 -27
2 -9 -5 -19 -5 -27 1 -8 7 -19 7 -33 -1 -14 -8 -25 -8 -33 -1 -8 6 -18 6 -27
1 -9 -5 -19 -5 -27 1 -8 7 -18 7 -32 -1 -15 -7 -21 -7 -21 0 0 7 -6 7 -21 0
-14 -8 -24 -8 -32 -1 -8 6 -18 6 -27 1 -9 -5 -19 -5 -27 1 -8 7 -18 7 -32 -1
-15 -7 -21 -7 -21 0 0 7 -6 7 -21 0 -14 -8 -24 -8 -32 -1 -8 6 -18 6 -27 1 -9
-5 -19 -5 -27 1 -8 7 -18 7 -32 -1 -15 -7 -21 -7 -21 0 0 7 -6 7 -21 0 -14 -8
-24 -8 -32 -1 -8 6 -18 6 -27 1 -9 -5 -19 -5 -27 1 -8 7 -18 7 -32 -1 -15 -7
-21 -7 -21 0 0 7 -6 7 -21 0 -14 -8 -24 -8 -32 -1 -8 6 -18 6 -27 1 -9 -5 -19
-5 -27 1 -8 7 -18 7 -32 -1 -15 -7 -21 -7 -21 0 0 7 -6 7 -21 0 -14 -8 -24 -8
-32 -1 -8 6 -18 6 -27 1 -9 -5 -19 -5 -27 1 -8 7 -18 7 -32 -1 -15 -7 -21 -7
-21 0 0 7 -6 7 -21 0 -14 -8 -24 -8 -32 -1 -8 6 -18 6 -27 1 -9 -5 -19 -5 -27
1 -8 7 -18 7 -32 -1 -15 -7 -21 -7 -21 0 0 7 -6 8 -18 1 -10 -5 -23 -7 -28 -3
-15 10 -24 51 -13 58 5 3 5 13 -1 25 -8 14 -7 19 1 19 9 0 9 3 0 14 -8 10 -9
16 -1 21 7 4 7 12 0 26 -6 10 -7 19 -3 19 4 0 6 34 3 76 -3 42 -2 78 2 81 5 2
3 13 -2 24 -6 10 -7 19 -3 19 4 0 6 34 3 76 -3 42 -2 78 2 81 5 2 3 13 -2 24
-8 14 -7 19 1 19 9 0 9 3 0 14 -8 10 -9 16 -1 21 7 4 7 12 0 26 -6 10 -7 19
-3 19 4 0 6 34 3 76 -3 42 -2 78 2 81 5 2 3 13 -2 24 -6 10 -7 19 -3 19 4 0 6
34 3 76 -3 42 -2 78 2 81 5 2 3 13 -2 24 -8 14 -7 19 1 19 9 0 9 3 0 14 -8 10
-9 16 -1 21 7 4 7 12 0 26 -8 14 -7 19 1 19 9 0 9 3 0 14 -8 10 -9 16 -1 21 7
4 7 12 0 26 -8 14 -7 19 1 19 9 0 9 3 0 14 -8 10 -9 16 -1 21 7 4 7 12 0 26
-6 10 -7 19 -3 19 4 0 6 34 3 76 -3 42 -2 78 2 81 5 2 3 13 -2 24 -6 10 -7 19
-3 19 4 0 6 34 3 76 -3 42 -2 78 2 81 5 2 3 13 -2 24 -8 14 -7 19 1 19 9 0 9
3 0 14 -8 10 -9 16 -1 21 7 4 7 12 0 26 -6 10 -7 19 -3 19 4 0 6 34 3 76 -3
42 -2 78 2 81 5 2 3 13 -2 24 -6 10 -7 19 -3 19 4 0 6 34 3 76 -3 42 -2 78 2
81 5 2 3 13 -2 24 -8 14 -7 19 1 19 9 0 9 3 0 14 -8 10 -9 16 -1 21 7 4 7 12
0 26 -6 10 -7 19 -3 19 4 0 6 34 3 76 -3 42 -2 78 2 81 5 2 3 13 -2 24 -6 10
-7 19 -3 19 4 0 6 34 3 76 -3 42 -2 78 2 81 5 2 3 13 -2 24 -8 14 -7 19 1 19
9 0 9 3 0 14 -8 10 -9 16 -1 21 7 4 7 12 0 26 -6 10 -7 19 -2 19 4 0 6 16 4
35 l-4 35 1836 0 1836 0 0 -1404z m10731 1392 c0 -7 1 -638 2 -1403 l1 -1390
-25 -1 c-13 0 -30 -3 -37 -8 -6 -4 -12 -3 -12 2 0 10 -42 8 -60 -3 -6 -4 -16
-2 -23 4 -8 6 -18 6 -27 1 -9 -5 -19 -5 -27 1 -8 7 -18 7 -32 -1 -15 -7 -21
-7 -21 0 0 7 -6 7 -21 0 -14 -8 -24 -8 -32 -1 -8 6 -18 6 -27 1 -9 -5 -19 -5
-27 1 -8 7 -19 7 -33 -1 -14 -8 -25 -8 -33 -1 -8 6 -18 6 -27 1 -9 -5 -19 -5
-27 2 -10 8 -13 7 -13 -3 0 -10 -3 -10 -12 -1 -7 7 -17 8 -29 2 -11 -6 -20 -6
-24 -1 -3 6 -17 6 -33 1 -16 -4 -36 -4 -45 2 -11 5 -24 5 -37 -2 -11 -6 -26
-7 -33 -3 -16 10 -38 10 -58 1 -8 -3 -21 -3 -28 2 -8 4 -26 4 -41 0 -15 -4
-34 -3 -43 2 -12 6 -17 5 -17 -3 0 -8 -4 -8 -13 -1 -8 7 -18 7 -27 2 -9 -5
-19 -5 -27 2 -10 8 -13 7 -13 -3 0 -10 -3 -10 -12 -1 -7 7 -17 8 -29 2 -11 -6
-20 -6 -24 -1 -3 6 -17 6 -33 1 -16 -4 -36 -4 -45 2 -11 5 -24 5 -37 -2 -11
-6 -26 -7 -33 -3 -16 10 -38 10 -58 1 -8 -3 -21 -3 -29 2 -7 4 -23 5 -35 0
-12 -5 -28 -4 -35 0 -8 5 -19 5 -26 -1 -8 -7 -14 -6 -19 1 -4 6 -12 7 -24 0
-12 -6 -22 -5 -29 2 -9 9 -12 9 -12 -2 0 -11 -3 -11 -12 -2 -7 7 -17 8 -29 2
-11 -6 -20 -6 -24 -1 -3 6 -17 6 -33 1 -16 -4 -36 -4 -45 2 -11 5 -24 5 -37
-2 -11 -6 -26 -7 -33 -3 -16 10 -38 10 -58 1 -8 -3 -21 -3 -28 2 -8 4 -26 4
-41 0 -15 -4 -34 -3 -43 2 -12 6 -17 5 -17 -3 0 -8 -4 -8 -13 -1 -8 7 -18 7
-27 2 -9 -5 -19 -5 -27 2 -10 8 -13 7 -13 -3 0 -10 -3 -10 -12 -1 -7 7 -17 8
-29 2 -11 -6 -20 -6 -24 -1 -3 6 -17 6 -33 1 -16 -4 -36 -4 -45 2 -11 5 -24 5
-37 -2 -11 -6 -26 -7 -33 -3 -16 10 -38 10 -58 1 -8 -3 -21 -3 -29 2 -7 4 -23
5 -35 0 -12 -5 -28 -4 -35 0 -8 5 -19 5 -26 -1 -8 -7 -14 -6 -19 1 -4 6 -12 7
-24 0 -12 -6 -22 -5 -29 2 -9 9 -12 9 -12 -2 0 -11 -3 -11 -12 -2 -7 7 -17 8
-29 2 -11 -6 -20 -6 -24 -1 -3 6 -17 6 -33 1 -16 -4 -36 -4 -45 2 -11 5 -24 5
-37 -2 -11 -6 -26 -7 -33 -3 -16 10 -38 10 -58 1 -8 -3 -21 -3 -28 2 -8 4 -26
4 -41 0 -15 -4 -34 -3 -43 2 -12 6 -17 5 -17 -3 0 -8 -4 -8 -13 -1 -8 7 -18 7
-27 2 -9 -5 -19 -5 -27 2 -9 7 -13 7 -13 -2 0 -9 -4 -9 -13 -2 -8 7 -18 7 -27
2 -9 -5 -19 -5 -27 1 -8 7 -19 7 -33 -1 -14 -8 -25 -8 -33 -1 -8 6 -18 6 -27
1 -9 -5 -19 -5 -27 1 -8 7 -18 7 -32 -1 -15 -7 -21 -7 -21 0 0 7 -6 7 -21 0
-14 -8 -24 -8 -32 -1 -8 6 -18 6 -27 1 -9 -5 -19 -5 -27 1 -8 7 -18 7 -32 -1
-15 -7 -21 -7 -21 0 0 7 -6 7 -21 0 -14 -8 -24 -8 -32 -1 -8 6 -18 6 -27 1 -9
-5 -19 -5 -27 1 -8 7 -18 7 -32 -1 -15 -7 -21 -7 -21 0 0 7 -6 7 -21 0 -14 -8
-24 -8 -32 -1 -8 6 -18 6 -27 1 -9 -5 -19 -5 -27 1 -8 7 -18 7 -32 -1 -15 -7
-21 -7 -21 0 0 7 -6 7 -21 0 -14 -8 -24 -8 -32 -1 -8 6 -18 6 -27 1 -9 -5 -19
-5 -27 1 -8 7 -18 7 -32 -1 -15 -7 -21 -7 -21 0 0 7 -6 7 -21 0 -14 -8 -24 -8
-32 -1 -8 6 -18 6 -27 1 -9 -5 -19 -5 -27 1 -8 7 -18 7 -32 -1 -15 -7 -21 -7
-21 0 0 7 -6 7 -21 0 -14 -8 -24 -8 -32 -1 -8 6 -18 6 -27 1 -9 -5 -19 -5 -27
1 -8 7 -18 7 -32 -1 -15 -7 -21 -7 -21 0 0 7 -6 7 -21 0 -14 -8 -24 -8 -32 -1
-8 6 -18 6 -27 1 -9 -5 -19 -5 -26 1 -6 5 -20 6 -30 2 -23 -9 -65 -9 -88 0 -9
4 -26 2 -37 -3 -11 -6 -25 -7 -32 -3 -16 10 -38 10 -58 1 -8 -3 -21 -3 -29 2
-7 4 -23 5 -35 0 -12 -5 -28 -4 -35 0 -8 5 -19 5 -26 -1 -8 -7 -14 -6 -19 1
-4 6 -12 7 -24 0 -12 -6 -22 -5 -29 2 -9 9 -12 9 -12 -2 0 -11 -3 -11 -12 -2
-7 7 -17 8 -29 2 -11 -6 -20 -6 -24 -1 -3 6 -17 6 -33 1 -16 -4 -36 -4 -45 2
-11 5 -24 5 -37 -2 -11 -6 -26 -7 -33 -3 -16 10 -38 10 -58 1 -8 -3 -21 -3
-28 2 -8 4 -26 4 -41 0 -15 -4 -34 -3 -43 2 -12 6 -17 5 -17 -3 0 -8 -4 -8
-13 -1 -8 7 -18 7 -27 2 -9 -5 -19 -5 -27 2 -10 8 -13 7 -13 -3 0 -10 -3 -10
-12 -1 -7 7 -17 8 -29 2 -11 -6 -20 -6 -24 -1 -3 6 -17 6 -33 1 -16 -4 -36 -4
-45 2 -11 5 -24 5 -37 -2 -11 -6 -26 -7 -33 -3 -16 10 -38 10 -58 1 -8 -3 -21
-3 -29 2 -7 4 -23 5 -35 0 -12 -5 -27 -5 -34 0 -7 4 -28 4 -46 0 -18 -4 -40
-3 -49 2 -10 5 -23 5 -36 -2 -11 -6 -26 -7 -33 -3 -16 10 -38 10 -58 1 -8 -3
-21 -3 -29 2 -7 4 -23 5 -35 0 -12 -5 -28 -4 -35 0 -8 5 -19 5 -26 -1 -8 -7
-14 -6 -19 1 -4 6 -12 7 -24 0 -12 -6 -22 -5 -29 2 -9 9 -12 9 -12 -2 0 -11
-3 -11 -12 -2 -7 7 -17 8 -29 2 -11 -6 -20 -6 -24 -1 -3 6 -17 6 -33 1 -16 -4
-36 -4 -45 2 -11 5 -24 5 -37 -2 -11 -6 -26 -7 -33 -3 -16 10 -38 10 -58 1 -8
-3 -21 -3 -28 2 -8 4 -26 4 -41 0 -15 -4 -34 -3 -43 2 -12 6 -17 5 -17 -3 0
-8 -4 -8 -13 -1 -8 7 -18 7 -27 2 -9 -5 -19 -5 -27 2 -10 8 -13 7 -13 -3 0
-10 -3 -10 -12 -1 -7 7 -17 8 -29 2 -11 -6 -20 -6 -24 -1 -3 6 -17 6 -33 1
-16 -4 -36 -4 -45 2 -11 5 -24 5 -37 -2 -11 -6 -26 -7 -33 -3 -16 10 -38 10
-58 1 -8 -3 -21 -3 -29 2 -7 4 -23 5 -35 0 -12 -5 -27 -5 -34 0 -7 4 -28 4
-46 0 -18 -4 -40 -3 -49 2 -10 5 -23 5 -36 -2 -11 -6 -26 -7 -33 -3 -16 10
-38 10 -58 1 -8 -3 -21 -3 -29 2 -7 4 -23 5 -35 0 -12 -5 -28 -4 -35 0 -8 5
-19 5 -26 -1 -8 -7 -14 -6 -19 1 -4 6 -12 7 -24 0 -12 -6 -22 -5 -29 2 -9 9
-12 9 -12 -2 0 -11 -3 -11 -12 -2 -7 7 -17 8 -29 2 -11 -6 -20 -6 -24 -1 -3 6
-17 6 -33 1 -16 -4 -36 -4 -45 2 -11 5 -24 5 -37 -2 -11 -6 -26 -7 -33 -3 -16
10 -38 10 -58 1 -8 -3 -21 -3 -28 2 -8 4 -26 4 -41 0 -15 -4 -34 -3 -43 2 -12
6 -17 5 -17 -3 0 -8 -4 -8 -13 -1 -8 7 -18 7 -27 2 -9 -5 -19 -5 -27 2 -10 8
-13 7 -13 -3 0 -10 -3 -10 -12 -1 -7 7 -17 8 -29 2 -11 -7 -20 -7 -24 0 -4 7
-12 7 -25 0 -13 -7 -19 -6 -24 5 -3 8 -5 643 -5 1410 l0 1395 3910 0 c3120 0
3909 -3 3910 -12z"/>
</g>
</svg>
